<svg xmlns="http://www.w3.org/2000/svg" xmlns:xlink="http://www.w3.org/1999/xlink" width="2000" zoomAndPan="magnify" viewBox="0 0 1500 1499.999933" height="2000" preserveAspectRatio="xMidYMid meet" version="1.0"><defs><clipPath id="0a589a42b3"><path d="M 750 0 C 335.785156 0 0 335.785156 0 750 C 0 1164.214844 335.785156 1500 750 1500 C 1164.214844 1500 1500 1164.214844 1500 750 C 1500 335.785156 1164.214844 0 750 0 Z M 750 0 " clip-rule="nonzero"/></clipPath><clipPath id="30b8bc5068"><path d="M 0 0 L 1500 0 L 1500 1500 L 0 1500 Z M 0 0 " clip-rule="nonzero"/></clipPath><clipPath id="dab291aadc"><path d="M 750 0 C 335.785156 0 0 335.785156 0 750 C 0 1164.214844 335.785156 1500 750 1500 C 1164.214844 1500 1500 1164.214844 1500 750 C 1500 335.785156 1164.214844 0 750 0 Z M 750 0 " clip-rule="nonzero"/></clipPath><clipPath id="ee69bb6abe"><rect x="0" width="1500" y="0" height="1500"/></clipPath><clipPath id="490b35842b"><path d="M 316 414.097656 L 1184 414.097656 L 1184 1086 L 316 1086 Z M 316 414.097656 " clip-rule="nonzero"/></clipPath></defs><g clip-path="url(#0a589a42b3)"><g transform="matrix(1, 0, 0, 1, 0, 0.000000000000112861)"><g clip-path="url(#ee69bb6abe)"><g clip-path="url(#30b8bc5068)"><g clip-path="url(#dab291aadc)"><rect x="-330" width="2160" fill="#1d1d20" height="2159.999904" y="-329.999985" fill-opacity="1"/></g></g></g></g></g><g clip-path="url(#490b35842b)"><path fill="#f5f6ff" d="M 1051.265625 470.375 C 1022.8125 457.054688 993.605469 445.683594 963.636719 436.261719 C 933.667969 426.839844 903.207031 419.453125 872.253906 414.097656 C 864.453125 427.996094 855.46875 446.8125 849.367188 461.730469 C 782.578125 451.730469 716.464844 451.730469 650.863281 461.730469 C 644.589844 446.8125 635.4375 427.996094 627.636719 414.097656 C 564.746094 424.945312 504.566406 444.101562 448.457031 470.546875 C 335.21875 641.757812 304.367188 808.734375 319.792969 973.335938 C 394.890625 1029.449219 467.78125 1063.519531 539.488281 1085.898438 C 557.117188 1061.484375 572.882812 1035.71875 586.445312 1008.425781 C 560.507812 998.59375 535.757812 986.390625 512.367188 972.320312 C 518.636719 967.742188 524.570312 962.828125 530.503906 957.910156 C 673.238281 1024.699219 828.515625 1024.699219 969.554688 957.910156 C 975.488281 962.828125 981.59375 967.742188 987.695312 972.320312 C 964.132812 986.390625 939.382812 998.59375 913.445312 1008.425781 C 927.007812 1035.550781 942.773438 1061.484375 960.402344 1085.898438 C 1032.109375 1063.519531 1105 1029.449219 1180.097656 973.335938 C 1198.40625 782.628906 1149.585938 617.179688 1051.265625 470.375 M 605.769531 872.132812 C 562.882812 872.132812 527.792969 832.128906 527.792969 783.308594 C 527.792969 734.484375 562.203125 694.480469 605.769531 694.480469 C 649.335938 694.480469 684.597656 734.484375 683.75 783.308594 C 683.917969 832.128906 649.507812 872.132812 605.769531 872.132812 M 894.289062 872.132812 C 851.402344 872.132812 816.3125 832.128906 816.3125 783.308594 C 816.3125 734.484375 850.722656 694.480469 894.289062 694.480469 C 937.855469 694.480469 973.117188 734.484375 972.269531 783.308594 C 972.269531 832.128906 937.855469 872.132812 894.289062 872.132812 " fill-opacity="1" fill-rule="nonzero"/></g></svg>